<?xml version="1.0" encoding="utf-8"?>
<svg viewBox="0 0 500 500" xmlns="http://www.w3.org/2000/svg">
  <g transform="matrix(0.128593, 0, 0, -0.128593, -523.636841, 1094.53772)" fill="#000000" stroke="none" style="">
    <path d="M5698 8143 l-288 -158 0 -310 -1 -310 -272 -147 c-150 -82 -278 -153 -285 -160 -9 -9 -12 -93 -12 -323 0 -285 2 -313 18 -327 24 -21 561 -311 575 -311 16 0 1710 924 1719 937 4 6 8 152 8 323 l0 313 -37 23 c-89 55 -1111 607 -1124 607 -8 0 -143 -71 -301 -157z m842 -496 l0 -283 -247 -134 c-136 -74 -253 -136 -260 -138 -10 -3 -13 51 -13 276 l0 280 258 141 c141 77 258 140 260 141 1 0 2 -127 2 -283z m570 -309 l0 -283 -254 -137 c-139 -76 -256 -138 -260 -138 -3 0 -5 127 -4 281 l3 282 250 137 c138 76 253 138 258 139 4 1 7 -126 7 -281z m-570 -310 l0 -283 -254 -137 c-139 -76 -256 -138 -260 -138 -3 0 -5 126 -4 281 l3 281 255 139 c140 76 256 139 258 139 1 0 2 -127 2 -282z m-562 -309 l-3 -280 -155 -85 c-85 -47 -201 -110 -257 -140 l-103 -56 0 284 0 283 253 137 c138 76 255 138 260 138 4 0 6 -126 5 -281z"/>
    <path d="M5096 5733 c-3 -16 -8 -51 -11 -80 l-7 -52 119 -3 119 -3 -43 -350 c-23 -192 -44 -365 -47 -382 l-5 -33 99 0 c95 0 100 1 104 23 3 12 24 175 46 362 22 187 43 350 45 362 5 21 11 22 123 25 l117 3 11 78 10 77 -337 0 -337 0 -6 -27z"/>
    <path d="M5805 5738 c7 -30 145 -884 145 -898 0 -6 36 -10 93 -10 l92 0 124 320 c68 176 127 320 130 320 4 0 27 -134 50 -297 24 -164 45 -308 48 -321 5 -22 9 -23 96 -20 l91 3 188 460 c103 253 188 461 188 462 0 10 -179 0 -199 -11 -20 -11 -42 -60 -113 -252 -48 -132 -98 -269 -110 -306 -12 -38 -25 -68 -28 -68 -3 0 -25 136 -48 303 -48 340 -47 337 -128 337 -73 0 -81 -13 -205 -340 -61 -162 -115 -299 -120 -304 -5 -6 -9 6 -9 30 0 22 -16 162 -35 310 -42 321 -33 304 -166 304 -88 0 -89 0 -84 -22z"/>
  </g>
</svg>